{"title":"De zoektocht naar Santa Paws-AC3-XviD-DVDRip[Ned]2010","uid":5976827,"size":1461340328,"categoryP":"video","categoryS":"movies","magnet":"?xt=urn:btih:6f8ad48de47362078ac290717181a0ba87dfbc10&amp;dn=De+zoektocht+naar+Santa+Paws-AC3-XviD-DVDRip%5BNed%5D2010&amp;tr=udp%3A%2F%2Ftracker.openbittorrent.com%3A80&amp;tr=udp%3A%2F%2Fopen.demonii.com%3A1337&amp;tr=udp%3A%2F%2Ftracker.coppersurfer.tk%3A6969&amp;tr=udp%3A%2F%2Fexodus.desync.com%3A6969","seeders":0,"leechers":1,"uploader":"FatFreddy31","files":-1,"time":1290465393,"description":"English title: The Search for Santa Paws.\n\nCanada\nAvontuur / Familie\n96 minuten\n\ngeregisseerd door Robert Vince\nmet Richard Riehle, Kaitlyn Maher en de stem van Zachary Gordon\n\nAls de Kerstman en zijn nieuwe beste vriend Paws, ontdekken dat de jongens en de meisjes van de wereld de geest van Kerstmis hebben verloren, ondernemen ze een trip naar New York. Maar nadat de Kerstman zijn geheugen verliest, is het aan Paws, het trouwe weesmeisje Quinn, haar nieuwe vriend Will en een wonderbaarlijke groep van magische, pratende honden, om de Kerstman uit de nood te helpen en de wereld te laten zien waar Kerstmis eigenlijk echt over gaat.\n &lt;a href=&quot;\nhttp://www.moviemeter.nl/film/71679&quot; rel=&quot;nofollow&quot; target=&quot;_NEW&quot;&gt;\nhttp://www.moviemeter.nl/film/71679&lt;/a&gt;\n &lt;a href=&quot;\nhttp://www.imdb.com/title/tt1544572/&quot; rel=&quot;nofollow&quot; target=&quot;_NEW&quot;&gt;\nhttp://www.imdb.com/title/tt1544572/&lt;/a&gt;\n\nAudio : Dutch / Nederlands. No subtitles / Geen ondertitels.\n\nHoesjes bijgevoegd.\n\nGeneral\nComplete name                    : De zoektocht naar Santa Paws-AC3-XviD-DVDRip[Ned]2010\\De zoektocht naar Santa Paws-AC3-XviD-DVDRip[Ned]2010.avi\nFormat                           : AVI\nFormat/Info                      : Audio Video Interleave\nFile size                        : 1.36 GiB\nDuration                         : 1h 32mn\nOverall bit rate                 : 2 105 Kbps\nWriting application              : VirtualDubMod 1.5.4.1 (build 2178/release)\nWriting library                  : VirtualDubMod build 2178/release\n\nVideo\nID                               : 0\nFormat                           : MPEG-4 Visual\nFormat profile                   : Simple@L3\nFormat settings, BVOP            : No\nFormat settings, QPel            : No\nFormat settings, GMC             : No warppoints\nFormat settings, Matrix          : Default (H.263)\nCodec ID                         : XVID\nCodec ID/Hint                    : XviD\nDuration                         : 1h 32mn\nBit rate                         : 1 711 Kbps\nWidth                            : 720 pixels\nHeight                           : 400 pixels\nDisplay aspect ratio             : 16:9\nFrame rate                       : 25.000 fps\nResolution                       : 8 bits\nColorimetry                      : 4:2:0\nScan type                        : Progressive\nBits/(Pixel*Frame)               : 0.238\nStream size                      : 1.11 GiB (81%)\nWriting library                  : XviD 1.1.2 (UTC 2006-11-01)\n\nAudio\nID                               : 1\nFormat                           : AC-3\nFormat/Info                      : Audio Coding 3\nCodec ID                         : 2000\nDuration                         : 1h 32mn\nBit rate mode                    : Constant\nBit rate                         : 384 Kbps\nChannel(s)                       : 6 channels\nChannel positions                : Front: L C R, Surround: L R, LFE\nSampling rate                    : 48.0 KHz\nStream size                      : 254 MiB (18%)\nAlignment                        : Split accross interleaves\nInterleave, duration             : 40 ms (1.00 video frame)\nInterleave, preload duration     : 500 ms\n\nMet dank aan VectraTeam voor de bron..","torrent":{"xt":"urn:btih:6f8ad48de47362078ac290717181a0ba87dfbc10","amp;dn":"De+zoektocht+naar+Santa+Paws-AC3-XviD-DVDRip%5BNed%5D2010","amp;tr":["udp%3A%2F%2Ftracker.openbittorrent.com%3A80","udp%3A%2F%2Fopen.demonii.com%3A1337","udp%3A%2F%2Ftracker.coppersurfer.tk%3A6969","udp%3A%2F%2Fexodus.desync.com%3A6969"],"infoHash":"6f8ad48de47362078ac290717181a0ba87dfbc10","infoHashBuffer":{"type":"Buffer","data":[111,138,212,141,228,115,98,7,138,194,144,113,113,129,160,186,135,223,188,16]},"announce":[],"urlList":[]}}